<svg id="Layer_1" data-name="Layer 1" xmlns="http://www.w3.org/2000/svg" viewBox="0 0 37.54 27.44"><defs><style>.cls-1{fill:#c82030;}</style></defs><path id="Path_5410" data-name="Path 5410" class="cls-1" d="M32.45,8.7A.93.93,0,0,0,32,8.42a9.79,9.79,0,0,0-4.65-1.15,10,10,0,0,0-7.92,3.9l-4.14.95A4.59,4.59,0,0,1,13.2,12L3.61,8.93A2,2,0,1,1,4.82,5.15h0l5.83,1.93c.48.21,2.76,1,6.8,0,4.19-1,12-2.63,14.78-3.18a1.23,1.23,0,0,0,1-1.19v0a1.22,1.22,0,0,0-1.08-1.27L22.69.09A15.74,15.74,0,0,0,18.52.2L4.45,2.93a4.13,4.13,0,0,0-2.87,7.29A4.11,4.11,0,0,0,.87,16a4.4,4.4,0,0,0,.71.72,4.13,4.13,0,0,0,1.29,7.18L13,27.13a4.41,4.41,0,0,0,2,.09l6.62-1.66A10,10,0,1,0,33.36,9.28a10.77,10.77,0,0,0-.91-.58M2.21,12.86a2,2,0,0,1,2.53-1.31l8.38,2.68a4.49,4.49,0,0,0,2,.08L18,13.69a10,10,0,0,0-.69,3.63,5.1,5.1,0,0,0,0,.78l-2.18.47a4.49,4.49,0,0,1-2-.08L3.51,15.4a2,2,0,0,1-1.3-2.53M15.14,25a4.49,4.49,0,0,1-2-.08l-9.6-3.09a2,2,0,0,1-1.3-2.53A2,2,0,0,1,4.74,18L13,20.67a4.73,4.73,0,0,0,2.05.09l2.63-.62A10.09,10.09,0,0,0,19.87,24Zm16.69-7-5.21,3.27-1.59,1V12.37l1.14.72,2.47,1.51L33,17.3Z"/></svg>