<svg id="Layer_1" data-name="Layer 1" xmlns="http://www.w3.org/2000/svg" viewBox="0 0 76.37 62.07"><defs><style>.cls-1{fill:#c82030;}.cls-2{fill:#bfbebe;}</style></defs><path class="cls-1" d="M45.48,62.07H31.77A8.71,8.71,0,0,1,24.23,49l6.86-11.87a8.54,8.54,0,0,1,3.3-3.26l.66,1.2a7.24,7.24,0,0,0-2.77,2.75L25.43,49.7a7.34,7.34,0,0,0,6.34,11H45.48a7.34,7.34,0,0,0,6.35-11L45,37.83a7.26,7.26,0,0,0-2.67-2.69L43,34a8.71,8.71,0,0,1,3.19,3.19L53,49a8.71,8.71,0,0,1-7.54,13.06Z"/><path class="cls-1" d="M38.21,53.77a3.41,3.41,0,0,1-3.56-3.35H35.9a2.25,2.25,0,0,0,2.31,2.34V48.65c-2-.37-3.13-1.07-3.13-2.85A3,3,0,0,1,38.21,43V41.61h.87V43a3.09,3.09,0,0,1,3.08,2.89H41A2.08,2.08,0,0,0,39.08,44v3.7c2.17.38,3.3,1.08,3.3,3a3.24,3.24,0,0,1-3.3,3.11v1.88h-.87Zm0-6.25V44c-1.25.11-2,.82-2,1.73S36.56,47.18,38.21,47.52Zm.87,1.27v4a2.11,2.11,0,0,0,2.07-2C41.15,49.65,40.69,49.13,39.08,48.79Z"/><path class="cls-1" d="M43.24,35.23H34a3.67,3.67,0,1,1,0-7.33h9.22a3.67,3.67,0,0,1,0,7.33ZM34,29.28a2.29,2.29,0,1,0,0,4.57h9.22a2.29,2.29,0,0,0,0-4.57Z"/><path class="cls-1" d="M34.42,29l-3.17-5.27V22.22h.69c.19,0,.29-.09.56-.45a1.88,1.88,0,0,1,3.3,0c.28.36.37.45.56.45s.28-.09.56-.45a1.88,1.88,0,0,1,3.3,0c.27.36.36.45.55.45s.28-.09.56-.45a1.87,1.87,0,0,1,3.29,0c.28.36.37.45.56.45h.69v1.39l-2.8,5.31-1.22-.65,2.56-4.84a2.7,2.7,0,0,1-.88-.82c-.27-.36-.37-.45-.55-.45s-.29.09-.56.45a1.87,1.87,0,0,1-3.3,0c-.27-.36-.37-.45-.55-.45s-.28.09-.56.45a1.87,1.87,0,0,1-3.3,0c-.28-.36-.37-.45-.56-.45s-.28.09-.56.45a2.6,2.6,0,0,1-.88.82l2.89,4.81Z"/><path class="cls-2" d="M73.14,42.3H53V40.93H73.14A1.8,1.8,0,0,0,75,39.2V27a1.8,1.8,0,0,0-1.85-1.73H51.32A1.8,1.8,0,0,0,49.47,27V34.7H48.09V27a3.18,3.18,0,0,1,3.23-3.11H73.14A3.18,3.18,0,0,1,76.37,27V39.2A3.17,3.17,0,0,1,73.14,42.3Z"/><rect class="cls-2" x="51.23" y="28.56" width="21.99" height="1.38"/><rect class="cls-2" x="64.9" y="36.94" width="5.56" height="1.38"/><polygon class="cls-2" points="3 40.59 0 23.27 31.94 17.74 32.36 20.18 31.01 20.42 30.82 19.33 1.59 24.39 4.12 39 29.7 34.56 29.94 35.92 3 40.59"/><path class="cls-2" d="M17.46,32.52a3.36,3.36,0,1,1,3.32-3.93,3.39,3.39,0,0,1-.56,2.51A3.34,3.34,0,0,1,18,32.47,2.78,2.78,0,0,1,17.46,32.52Zm0-5.34-.34,0a2,2,0,0,0,.68,3.9,2,2,0,0,0,1.28-.81,2,2,0,0,0,.33-1.48h0A2,2,0,0,0,17.47,27.18Z"/><path class="cls-2" d="M7.69,37l.09-.91a1.25,1.25,0,0,0,0-.34A1.22,1.22,0,0,0,7.26,35a1.29,1.29,0,0,0-1-.22,1.35,1.35,0,0,0-.32.11l-.82.39-1.38-8,1,.19a1.07,1.07,0,0,0,.47,0,1.26,1.26,0,0,0,.82-.51A1.29,1.29,0,0,0,6.27,26a1.17,1.17,0,0,0-.06-.2L5.94,25l21.36-3.7v.81a1.7,1.7,0,0,0,0,.22,1.28,1.28,0,0,0,1.46,1l.21-.06.75-.27,1,5.09-1.35.27-.74-3.64a2.66,2.66,0,0,1-2.63-1.84L7.66,26.11A2.63,2.63,0,0,1,5.47,28.8h0l.79,4.55a2.65,2.65,0,0,1,2.85,2l19.21-3.45.24,1.36Z"/><polygon class="cls-2" points="3.45 21.86 2.98 19.07 35.24 13.6 36.24 19.5 34.88 19.73 34.11 15.19 4.57 20.19 4.81 21.63 3.45 21.86"/><circle class="cls-2" cx="54.71" cy="13.22" r="1.13"/><path class="cls-2" d="M35.84,13.1l-1-1a9.69,9.69,0,0,1,5.64-2.7l1.56-.19A12.61,12.61,0,0,1,46.31,7l.41,1.31a11.3,11.3,0,0,0-3.91,2.13l-.16.13-2,.24A8.34,8.34,0,0,0,35.84,13.1Z"/><path class="cls-2" d="M60.55,22.85l-1.19-.68A7.79,7.79,0,0,0,60.19,20l.14-.62h1.93V16.13H60.33l-.12-.54c-.52-2.38-2.19-5.1-3.72-6.08l-.72-.46,1.79-1.81A2,2,0,0,0,56,6.56a2,2,0,0,0-1.83,1.19L53,7.19A3.39,3.39,0,0,1,59.05,7l.23.45L57.9,8.85a12.77,12.77,0,0,1,3.52,5.9h2.22V20.8H61.42A8.78,8.78,0,0,1,60.55,22.85Z"/><path class="cls-2" d="M49.65,7.15a3.58,3.58,0,1,1,3.58-3.57A3.58,3.58,0,0,1,49.65,7.15Zm0-5.77a2.2,2.2,0,1,0,2.2,2.2A2.2,2.2,0,0,0,49.65,1.38Z"/></svg>