<svg id="Layer_1" data-name="Layer 1" xmlns="http://www.w3.org/2000/svg" viewBox="0 0 85.99 58.39"><defs><style>.cls-1{fill:#bfbebe;}.cls-2{fill:#c82030;}</style></defs><path class="cls-1" d="M17.18,47.37l-.26-.11C16.75,47.19.4,40.21,0,18.34a1.47,1.47,0,0,1,.42-1.06,1.53,1.53,0,0,1,1.05-.45c2.5,0,11-.64,14.76-7.11a1.08,1.08,0,0,1,.95-.54h0a1.09,1.09,0,0,1,.95.54c3.78,6.47,12.26,7.08,14.76,7.11a1.49,1.49,0,0,1,1.47,1.51,38,38,0,0,1-1.92,11.51l-1.3-.44A36.5,36.5,0,0,0,33,18.32a.1.1,0,0,0-.11-.11c-2.63,0-11.44-.67-15.69-7.4-4.26,6.73-13.06,7.37-15.7,7.4a.11.11,0,0,0-.07,0,.1.1,0,0,0,0,.08c.2,10.94,4.55,17.87,8.16,21.76a26.4,26.4,0,0,0,7.64,5.79,27.1,27.1,0,0,0,8.66-6.95l1.06.88a27,27,0,0,1-9.46,7.46Z"/><polygon class="cls-1" points="16.17 34.31 9.69 27.83 10.66 26.85 16.17 32.36 26.97 21.56 27.94 22.53 16.17 34.31"/><path class="cls-1" d="M82.93,38.23H60.64V36.86H82.93a1.69,1.69,0,0,0,1.68-1.69V19.52a1.68,1.68,0,0,0-1.68-1.68H57.07a1.68,1.68,0,0,0-1.68,1.68v9H54v-9a3.07,3.07,0,0,1,3.06-3.06H82.93A3.07,3.07,0,0,1,86,19.52V35.17A3.07,3.07,0,0,1,82.93,38.23Z"/><rect class="cls-1" x="57.49" y="22.09" width="25.01" height="1.38"/><rect class="cls-1" x="73.04" y="32.09" width="6.33" height="1.38"/><path class="cls-2" d="M55.76,58.39H30.94a3.34,3.34,0,0,1-3.33-3.33V34.63a3.34,3.34,0,0,1,3.33-3.33H55.76a3.34,3.34,0,0,1,3.33,3.33V55.06A3.34,3.34,0,0,1,55.76,58.39ZM30.94,32.68a2,2,0,0,0-2,2V55.06a2,2,0,0,0,2,1.95H55.76a2,2,0,0,0,2-1.95V34.63a2,2,0,0,0-2-2Z"/><path class="cls-2" d="M52,32.68H34.74V25.46a8.08,8.08,0,0,1,8.07-8.07h1.08A8.08,8.08,0,0,1,52,25.46ZM36.12,31.3H50.59V25.46a6.71,6.71,0,0,0-6.7-6.7H42.81a6.7,6.7,0,0,0-6.69,6.7Z"/><path class="cls-2" d="M45.29,51.16H41.41a1.64,1.64,0,0,1-1.5-2.31,3.62,3.62,0,0,0-.09-3.26,4,4,0,0,1-.48-2.87,4.1,4.1,0,0,1,3.14-3.19,4.14,4.14,0,0,1,3.45.83,4.08,4.08,0,0,1,1.51,3.17,4.13,4.13,0,0,1-.53,2,3.66,3.66,0,0,0-.12,3.29,1.63,1.63,0,0,1-1.5,2.31ZM43.36,40.82a3.05,3.05,0,0,0-.6.06,2.71,2.71,0,0,0-1.75,4,5,5,0,0,1,.16,4.51.25.25,0,0,0,0,.25.25.25,0,0,0,.22.12h3.88a.25.25,0,0,0,.22-.12.25.25,0,0,0,0-.25,5.1,5.1,0,0,1,.18-4.54,2.71,2.71,0,0,0,.35-1.34,2.71,2.71,0,0,0-2.7-2.71Z"/><rect class="cls-1" x="60.64" y="42.61" width="23.92" height="1.38"/><polygon class="cls-1" points="63.69 14.02 62.96 1.46 28.52 3.57 29.14 13.63 27.77 13.71 27.07 2.28 64.25 0 65.07 13.94 63.69 14.02"/><path class="cls-1" d="M46.27,15a3.78,3.78,0,1,1,2.5-6.61A3.75,3.75,0,0,1,50,10.94h0a3.78,3.78,0,0,1-3.54,4Zm0-6.17h-.15a2.39,2.39,0,1,0,.29,4.78,2.35,2.35,0,0,0,1.65-.8A2.39,2.39,0,0,0,48.66,11h0a2.33,2.33,0,0,0-.8-1.65A2.38,2.38,0,0,0,46.28,8.78Z"/><path class="cls-1" d="M31.28,14.71l-.35-7.34.94.3a1.64,1.64,0,0,0,.57.08,1.56,1.56,0,0,0,1.47-1.67,1.17,1.17,0,0,0,0-.26L33.68,5,58.45,3.51l-.09.81a2.44,2.44,0,0,0,0,.27A1.58,1.58,0,0,0,60,6.06l.26,0,.81-.18L61.41,14,60,14l-.26-6.57A3,3,0,0,1,57,5L35.29,6.31a2.94,2.94,0,0,1-2.76,2.81h-.14l.26,5.51Z"/></svg>