<svg xmlns="http://www.w3.org/2000/svg" width="16.5" height="16.5" viewBox="0 0 16.5 16.5">
  <path id="Path_14345_-_Outline" data-name="Path 14345 - Outline" d="M43.3,92.253a1.662,1.662,0,0,1-1.176-2.838l3.994-3.994a1,1,0,0,1,.715-.295,1.034,1.034,0,0,1,.149.011l.481-.482a5.786,5.786,0,1,1,1.772,1.772l-.481.481a1.011,1.011,0,0,1-.284.864l-3.994,3.994A1.652,1.652,0,0,1,43.3,92.253Zm3.538-6.23a.117.117,0,0,0-.083.034l-3.994,3.994a.763.763,0,0,0,1.079,1.079l3.994-3.994a.118.118,0,0,0,0-.167l-.912-.912A.117.117,0,0,0,46.843,86.022Zm5.509-9.37a4.89,4.89,0,1,0,3.459,1.43A4.859,4.859,0,0,0,52.353,76.652Zm-4.584,8.974.5.5.246-.246q-.135-.119-.258-.242t-.242-.258Z" transform="translate(-41.643 -75.752)" fill="#2b2b2b"/>
</svg>
