<svg id="Layer_1" data-name="Layer 1" xmlns="http://www.w3.org/2000/svg" viewBox="0 0 86.46 62.41"><defs><style>.cls-1{fill:#bfbebe;}.cls-2{fill:#c82030;}</style></defs><rect class="cls-1" x="65.31" y="30.54" width="15.44" height="1.38"/><rect class="cls-1" x="65.31" y="34.9" width="15.44" height="1.38"/><rect class="cls-1" x="65.31" y="39.25" width="15.44" height="1.38"/><path class="cls-2" d="M50.63,62.41,41.3,54.52H24.41v-23H62.88V54.84H50.63ZM25.79,53.14h16l7.45,6.3v-6H61.5V32.91H25.79Z"/><polygon class="cls-1" points="67.68 55.37 67.68 47.8 64.75 47.8 64.75 46.42 69.06 46.42 69.06 52.4 76.5 46.1 85.09 46.1 85.09 25.87 59.42 25.87 59.42 29.74 58.04 29.74 58.04 24.49 86.46 24.49 86.46 47.48 77.01 47.48 67.68 55.37"/><circle class="cls-2" cx="36.55" cy="43.51" r="1.9"/><circle class="cls-2" cx="43.78" cy="43.51" r="1.9"/><circle class="cls-2" cx="51.01" cy="43.51" r="1.9"/><path class="cls-1" d="M26.65,29.33a13.32,13.32,0,0,0-3.06-3.67l.89-1.06a15.08,15.08,0,0,1,3.37,4Z"/><path class="cls-1" d="M14.86,50.89A14.89,14.89,0,1,1,24.48,24.6l-.89,1.06a13.51,13.51,0,1,0-6.71,23.7,13.23,13.23,0,0,0,5-1.77l.71,1.19a14.92,14.92,0,0,1-7.69,2.11Z"/><circle class="cls-1" cx="13.55" cy="26.86" r="1.89"/><polygon class="cls-1" points="16.13 44.41 14.39 32.71 11.05 33.21 10.85 31.84 15.55 31.15 17.49 44.21 16.13 44.41"/><rect class="cls-1" x="12.75" y="43.67" width="7.5" height="1.38" transform="translate(-6.34 2.91) rotate(-8.45)"/><circle class="cls-1" cx="52.81" cy="24.69" r="1.6"/><path class="cls-1" d="M51.62,20.73l0-.56a10.93,10.93,0,0,1,.32-4.82,13.68,13.68,0,0,1,2.58-4.09c.31-.39.62-.77.91-1.15a6.23,6.23,0,0,0,1.51-4.27A4.58,4.58,0,0,0,55,2.23a6.35,6.35,0,0,0-5.35-.51A6,6,0,0,0,45.4,8.26L44,8.41a7.33,7.33,0,0,1,5.23-8,7.74,7.74,0,0,1,6.51.69,5.93,5.93,0,0,1,2.48,4.59,7.5,7.5,0,0,1-1.77,5.25c-.29.4-.61.8-.94,1.2a13,13,0,0,0-2.35,3.66,9.85,9.85,0,0,0-.25,4.27l.05.56Z"/><circle class="cls-1" cx="36.92" cy="7.73" r="1.6"/><path class="cls-1" d="M32.19,29.31a6.79,6.79,0,0,1-.71-2.58,7.51,7.51,0,0,1,1.77-5.25c.29-.4.61-.79.94-1.19a12.78,12.78,0,0,0,2.35-3.67,9.8,9.8,0,0,0,.25-4.26l0-.57,1.38-.11,0,.56a10.92,10.92,0,0,1-.32,4.82,13.55,13.55,0,0,1-2.58,4.09c-.31.39-.62.77-.91,1.15a6.13,6.13,0,0,0-1.5,4.27,5.68,5.68,0,0,0,.56,2.11Z"/><path class="cls-1" d="M44.19,29.51l-1.08-.85a6.21,6.21,0,0,0,1.23-4.51L45.71,24A7.56,7.56,0,0,1,44.19,29.51Z"/></svg>