<svg id="Layer_1" data-name="Layer 1" xmlns="http://www.w3.org/2000/svg" viewBox="0 0 24.96 31.01"><defs><style>.cls-1{fill:#c82030;fill-rule:evenodd;}</style></defs><g id="Group_4939" data-name="Group 4939"><path id="Path_5398" data-name="Path 5398" class="cls-1" d="M9.09,8.92A1.23,1.23,0,0,0,7.86,10.1v.05A1.23,1.23,0,0,0,9,11.47h.1a1.4,1.4,0,0,0,1.29-1.32A1.31,1.31,0,0,0,9.09,8.92Z"/><path id="Path_5399" data-name="Path 5399" class="cls-1" d="M25,29.93h0L23.43,6.45a1,1,0,0,0-1-.92H18.2V4.91A4.91,4.91,0,0,0,13.32,0H11.65A4.89,4.89,0,0,0,6.78,4.92v.64H2.52a1,1,0,0,0-1,.89L0,30a.94.94,0,0,0,.27.73A.92.92,0,0,0,1,31H24a1,1,0,0,0,1-1h0ZM15.89,18.24,10,20.71c-.41.17-.57-.05-.71-.36L7.72,16.54C7.16,15.18,6.61,13.81,6,12.47a1.32,1.32,0,0,1,.1-1.33c.61-1,1.13-2,1.71-3a2.28,2.28,0,0,1,.4-.42h0l2.16.62c.48.15,1,.28,1.46.39a1.31,1.31,0,0,1,1.08.93c1.05,2.64,2.12,5.28,3.22,7.9C16.32,17.92,16.26,18.08,15.89,18.24Zm.35-12.71H8.7V4.91h0A2.92,2.92,0,0,1,11.62,2H13.3a2.94,2.94,0,0,1,2.93,2.94h0Z"/></g></svg>